HIERARCHY
ROOT hip
{
  OFFSET 0 0 0
  CHANNELS 6 Xposition Yposition Zposition Zrotation Yrotation Xrotation
  JOINT abdomen
  {
    OFFSET 0 20.6881 -0.73152
    CHANNELS 3 Zrotation Xrotation Yrotation
    JOINT chest
    {
      OFFSET 0 11.7043 -0.48768
      CHANNELS 3 Zrotation Xrotation Yrotation
      JOINT neck
      {
        OFFSET 0 22.1894 -2.19456
        CHANNELS 3 Zrotation Xrotation Yrotation
        JOINT head
        {
          OFFSET -0.24384 7.07133 1.2192
          CHANNELS 3 Zrotation Xrotation Yrotation
          JOINT leftEye
          {
            OFFSET 4.14528 8.04674 8.04672
            CHANNELS 3 Zrotation Xrotation Yrotation
            End Site
            {
              OFFSET 1 0 0
            }
          }
          JOINT rightEye
          {
            OFFSET -3.6576 8.04674 8.04672
            CHANNELS 3 Zrotation Xrotation Yrotation
            End Site
            {
              OFFSET 1 0 0
            }
          }
        }
      }
      JOINT rCollar
      {
        OFFSET -2.68224 19.2634 -4.8768
        CHANNELS 3 Zrotation Xrotation Yrotation
        JOINT rShldr
        {
          OFFSET -8.77824 -1.95073 1.46304
          CHANNELS 3 Zrotation Xrotation Yrotation
          JOINT rForeArm
          {
            OFFSET -28.1742 -1.7115 0.48768
            CHANNELS 3 Zrotation Xrotation Yrotation
            JOINT rHand
            {
              OFFSET -22.5879 0.773209 7.07136
              CHANNELS 3 Zrotation Xrotation Yrotation
              JOINT rThumb1
              {
                OFFSET -1.2192 -0.487915 3.41376
                CHANNELS 3 Zrotation Xrotation Yrotation
                JOINT rThumb2
                {
                  OFFSET -3.37035 -0.52449 3.41376
                  CHANNELS 3 Zrotation Xrotation Yrotation
                  End Site
                  {
                    OFFSET -1.78271 -1.18214 1.43049
                  }
                }
              }
              JOINT rIndex1
              {
                OFFSET -7.75947 0.938293 5.60832
                CHANNELS 3 Zrotation Xrotation Yrotation
                JOINT rIndex2
                {
                  OFFSET -2.54057 -0.884171 1.56538
                  CHANNELS 3 Zrotation Xrotation Yrotation
                  End Site
                  {
                    OFFSET -1.62519 -0.234802 1.16502
                  }
                }
              }
              JOINT rMid1
              {
                OFFSET -8.24714 1.18213 3.41376
                CHANNELS 3 Zrotation Xrotation Yrotation
                JOINT rMid2
                {
                  OFFSET -3.10165 -0.590103 1.0647
                  CHANNELS 3 Zrotation Xrotation Yrotation
                  End Site
                  {
                    OFFSET -2.48547 -0.328903 0.83742
                  }
                }
              }
              JOINT rRing1
              {
                OFFSET -8.82822 0.546677 1.51678
                CHANNELS 3 Zrotation Xrotation Yrotation
                JOINT rRing2
                {
                  OFFSET -2.60934 -0.819778 -0.0198488
                  CHANNELS 3 Zrotation Xrotation Yrotation
                  End Site
                  {
                    OFFSET -2.33842 -0.294052 0.168128
                  }
                }
              }
              JOINT rPinky1
              {
                OFFSET -8.27202 -0.0477905 -0.4584
                CHANNELS 3 Zrotation Xrotation Yrotation
                JOINT rPinky2
                {
                  OFFSET -1.82734 -0.647385 -0.700984
                  CHANNELS 3 Zrotation Xrotation Yrotation
                  End Site
                  {
                    OFFSET -1.69225 -0.51767 -0.607171
                  }
                }
              }
            }
          }
        }
      }
      JOINT lCollar
      {
        OFFSET 2.68224 19.2634 -4.8768
        CHANNELS 3 Zrotation Xrotation Yrotation
        JOINT lShldr
        {
          OFFSET 8.77824 -1.95073 1.46304
          CHANNELS 3 Zrotation Xrotation Yrotation
          JOINT lForeArm
          {
            OFFSET 28.1742 -1.7115 0.48768
            CHANNELS 3 Zrotation Xrotation Yrotation
            JOINT lHand
            {
              OFFSET 22.5879 0.773209 7.07136
              CHANNELS 3 Zrotation Xrotation Yrotation
              JOINT lThumb1
              {
                OFFSET 1.2192 -0.487915 3.41376
                CHANNELS 3 Zrotation Xrotation Yrotation
                JOINT lThumb2
                {
                  OFFSET 3.37035 -0.52449 3.41376
                  CHANNELS 3 Zrotation Xrotation Yrotation
                  End Site
                  {
                    OFFSET 1.78271 -1.18214 1.43049
                  }
                }
              }
              JOINT lIndex1
              {
                OFFSET 7.75947 0.938293 5.60832
                CHANNELS 3 Zrotation Xrotation Yrotation
                JOINT lIndex2
                {
                  OFFSET 2.54057 -0.884171 1.56538
                  CHANNELS 3 Zrotation Xrotation Yrotation
                  End Site
                  {
                    OFFSET 1.62519 -0.234802 1.16502
                  }
                }
              }
              JOINT lMid1
              {
                OFFSET 8.24714 1.18213 3.41376
                CHANNELS 3 Zrotation Xrotation Yrotation
                JOINT lMid2
                {
                  OFFSET 3.10165 -0.590103 1.0647
                  CHANNELS 3 Zrotation Xrotation Yrotation
                  End Site
                  {
                    OFFSET 2.48547 -0.328903 0.83742
                  }
                }
              }
              JOINT lRing1
              {
                OFFSET 8.82822 0.546677 1.51678
                CHANNELS 3 Zrotation Xrotation Yrotation
                JOINT lRing2
                {
                  OFFSET 2.60934 -0.819778 -0.0198488
                  CHANNELS 3 Zrotation Xrotation Yrotation
                  End Site
                  {
                    OFFSET 2.33842 -0.294052 0.168128
                  }
                }
              }
              JOINT lPinky1
              {
                OFFSET 8.27202 -0.0477905 -0.4584
                CHANNELS 3 Zrotation Xrotation Yrotation
                JOINT lPinky2
                {
                  OFFSET 1.82734 -0.647385 -0.700984
                  CHANNELS 3 Zrotation Xrotation Yrotation
                  End Site
                  {
                    OFFSET 1.69225 -0.51767 -0.607171
                  }
                }
              }
            }
          }
        }
      }
    }
  }
  JOINT rButtock
  {
    OFFSET -8.77824 4.35084 1.2192
    CHANNELS 3 Zrotation Xrotation Yrotation
    JOINT rThigh
    {
      OFFSET 0 -1.70687 -2.19456
      CHANNELS 3 Zrotation Xrotation Yrotation
      JOINT rShin
      {
        OFFSET 0 -36.8199 0.73152
        CHANNELS 3 Zrotation Xrotation Yrotation
        JOINT rFoot
        {
          OFFSET 0.73152 -45.1104 -5.12064
          CHANNELS 3 Zrotation Xrotation Yrotation
          End Site
          {
            OFFSET -1.1221 -3.69964 12.103
          }
        }
      }
    }
  }
  JOINT lButtock
  {
    OFFSET 8.77824 4.35084 1.2192
    CHANNELS 3 Zrotation Xrotation Yrotation
    JOINT lThigh
    {
      OFFSET 0 -1.70687 -2.19456
      CHANNELS 3 Zrotation Xrotation Yrotation
      JOINT lShin
      {
        OFFSET 0 -36.8199 0.73152
        CHANNELS 3 Zrotation Xrotation Yrotation
        JOINT lFoot
        {
          OFFSET -0.73152 -45.1104 -5.12064
          CHANNELS 3 Zrotation Xrotation Yrotation
          End Site
          {
            OFFSET 1.1221 -3.69964 12.103
          }
        }
      }
    }
  }
}
MOTION
Frames:	4
Frame Time:	0.03333
-25.20639990548727 75.53560161611544 -115.75000009053383 -2.1171998977661133 2.831699848175049 2.2244997024536133 -3.3864002227783203 5.451769828796387 3.274369716644287 2.4270100593566895 -5.932610511779785 0.9568209648132324 -5.703680515289307 9.661249160766602 -4.440010070800781 7.065680503845215 -11.229899406433105 -7.354459285736084 -0.0 0.0 -0.0 -0.0 0.0 -0.0 -8.36692030221041e-15 -1.4992799744965152e-15 -8.911139817854245e-15 46.38959884643555 39.92280197143555 51.53089904785156 -18.703401565551758 -11.465001106262207 35.61940002441406 -0.6161999106407166 -21.725601196289062 -3.2102901935577393 7.864059958784253e-10 -1.2575900321110112e-09 -5.250879939189268e-11 1.3590100156335438e-09 -2.232909857013965e-09 -7.692180226115397e-11 7.863999451629411e-10 -1.2575900321110112e-09 -5.25123000638672e-11 7.730909824371338 5.474879741668701 0.4173140823841095 7.864049966777031e-10 -1.2575999130959303e-09 -5.249340198631991e-11 2.9055399894714355 0.9651829600334167 0.10290199518203735 7.864069395679962e-10 -1.257579929081487e-09 -5.250499687803334e-11 10.27859878540039 0.73180091381073 0.025912316516041756 7.864029427651076e-10 -1.257579929081487e-09 -5.249799900353125e-11 2.221669912338257 -0.733487069606781 -0.208919957280159 -8.454259563467695e-15 -1.4955100426065232e-15 -9.264059483459538e-15 -52.959197998046875 46.73919677734375 -59.61210250854492 16.920499801635742 -9.57136058807373 -31.641000747680664 0.9890310168266296 -27.034297943115234 4.112509727478027 1.1446898984246445e-10 1.3944398968845917e-09 3.359689748627659e-10 1.9110099613861564e-10 2.400150078685215e-09 5.836369720846335e-10 1.1446699144102013e-10 1.3944499999141158e-09 3.359799938262853e-10 -7.730909824371338 5.474879741668701 -0.4173140823841095 1.1447200132241875e-10 1.3944499999141158e-09 3.359689748627659e-10 -2.9055399894714355 0.9651829600334167 -0.10290199518203735 1.1446599224029796e-10 1.3944499999141158e-09 3.3596797566204373e-10 -10.27859878540039 0.73180091381073 -0.025912316516041756 1.1447399972386307e-10 1.3944499999141158e-09 3.3595701220967555e-10 -2.221669912338257 -0.733487069606781 0.208919957280159 -2.0321699480147914e-16 0.0 -3.8825099822884138e-19 3.9368393421173096 -34.813499450683594 -2.1494505405426025 -1.298029899597168 63.61710739135742 1.8982597589492798 -0.6608319878578186 -26.188600540161133 -1.0401601791381836 2.0321699480147914e-16 0.0 3.8825099822884138e-19 -5.2955803871154785 -35.18660354614258 -0.12768255174160004 1.2868999242782593 64.00840759277344 -2.011039972305298 5.602240085601807 -25.985599517822266 9.63154125213623
-25.21590069862276 75.49429946220438 -115.7229935225556 -2.1298000812530518 2.8579001426696777 2.2218000888824463 -3.3717200756073 5.477720260620117 3.2629098892211914 2.415440082550049 -5.9204301834106445 0.9585779309272766 -5.709260940551758 9.65140151977539 -4.44488000869751 7.0911102294921875 -11.179000854492188 -7.351330757141113 -0.0 0.0 -0.0 -0.0 0.0 -0.0 -7.207109935973913e-14 1.4402499646463257e-13 3.3162901813760595e-14 46.34819412231445 39.948204040527344 51.5640983581543 -18.699501037597656 -11.464700698852539 35.614097595214844 -0.6166939735412598 -21.73379898071289 -3.2116200923919678 7.382670030864347e-10 -2.8587399114599066e-09 3.235000045620495e-10 1.2673400107132693e-09 -4.992199542641629e-09 5.741720432439479e-10 7.382649491738391e-10 -2.8587399114599066e-09 3.234949808028631e-10 7.730909824371338 5.474879741668701 0.4173140823841095 7.38269001487879e-10 -2.8587399114599066e-09 3.235119949707155e-10 2.9055399894714355 0.9651829600334167 0.10290199518203735 7.382670030864347e-10 -2.858729919452685e-09 3.235029744086404e-10 10.27859878540039 0.73180091381073 0.025912316516041756 7.382610078821017e-10 -2.858729919452685e-09 3.2351499257288197e-10 2.221669912338257 -0.733487069606781 -0.208919957280159 -7.208509912029135e-14 1.4402698868612451e-13 3.2964499592459326e-14 -52.99610137939453 46.73320388793945 -59.58510208129883 16.910400390625 -9.561339378356934 -31.619094848632812 0.9927921295166016 -27.080896377563477 4.120779991149902 -2.2480999006813107e-10 -1.6812898850915303e-09 -3.149519811618262e-10 -3.7964301147219714e-10 -2.906249685352691e-09 -5.526619717421966e-10 -2.2480999006813107e-10 -1.6812798930843087e-09 -3.149500105159575e-10 -7.730909824371338 5.474879741668701 -0.4173140823841095 -2.2480599326524242e-10 -1.6812798930843087e-09 -3.149519811618262e-10 -2.9055399894714355 0.9651829600334167 -0.10290199518203735 -2.2480999006813107e-10 -1.6812798930843087e-09 -3.149579763661592e-10 -10.27859878540039 0.73180091381073 -0.025912316516041756 -2.2480299566307593e-10 -1.6812798930843087e-09 -3.149630001253456e-10 -2.221669912338257 -0.733487069606781 0.208919957280159 -2.0321699480147914e-16 0.0 -3.8825099822884138e-19 3.9360404014587402 -34.8191032409668 -2.195819616317749 -1.3054701089859009 63.708805084228516 1.9062899351119995 -0.662817120552063 -26.254100799560547 -1.0422899723052979 2.0321699480147914e-16 0.0 3.8825099822884138e-19 -5.324820041656494 -35.20290756225586 -0.20344585180282593 1.2946099042892456 64.10389709472656 -2.0203797817230225 5.65716028213501 -26.021100997924805 9.71815013885498
-25.229600350550513 75.46020315786767 -115.69199812410208 -2.1500000953674316 2.855400323867798 2.2139999866485596 -3.3371598720550537 5.468969821929932 3.2756001949310303 2.401560068130493 -5.908120155334473 0.9617910385131836 -5.709929943084717 9.673661231994629 -4.454009532928467 7.11245059967041 -11.181501388549805 -7.363349914550781 -0.0 0.0 -0.0 -0.0 0.0 -0.0 -5.964839895882673e-14 1.661309842948197e-13 9.432409822825172e-14 46.31109619140625 39.981197357177734 51.58120346069336 -18.69719886779785 -11.460801124572754 35.607601165771484 -0.6187649369239807 -21.76810073852539 -3.2172203063964844 -4.0275099227882194e-11 -2.168669910318499e-09 4.70511962724629e-10 -8.00716021265302e-11 -3.742349985458304e-09 8.154250052960776e-10 -4.027549821428167e-11 -2.168669910318499e-09 4.705039691188517e-10 7.730909824371338 5.474879741668701 0.4173140823841095 -4.027379818527521e-11 -2.1686599183112776e-09 4.705199563304063e-10 2.9055399894714355 0.9651829600334167 0.10290199518203735 -4.027450248300646e-11 -2.168669910318499e-09 4.705150158379467e-10 10.27859878540039 0.73180091381073 0.025912316516041756 -4.0281798729946416e-11 -2.1686599183112776e-09 4.705260070458905e-10 2.221669912338257 -0.733487069606781 -0.208919957280159 -5.961310140184875e-14 1.661309842948197e-13 9.417890322856518e-14 -53.035099029541016 46.72960662841797 -59.551795959472656 16.899999618530273 -9.550591468811035 -31.59619903564453 0.9939679503440857 -27.095399856567383 4.123359680175781 -7.096539467177365e-10 -3.861539976668382e-09 -5.538459690868081e-10 -1.21152987642148e-09 -6.691420306736973e-09 -9.76510983186074e-10 -7.096569998310542e-10 -3.861539976668382e-09 -5.538449698860859e-10 -7.730909824371338 5.474879741668701 -0.4173140823841095 -7.096529475170144e-10 -3.861539976668382e-09 -5.538459690868081e-10 -2.9055399894714355 0.9651829600334167 -0.10290199518203735 -7.096549459184587e-10 -3.861539976668382e-09 -5.538510206015701e-10 -10.27859878540039 0.73180091381073 -0.025912316516041756 -7.096489507141257e-10 -3.861539976668382e-09 -5.538539626925854e-10 -2.221669912338257 -0.733487069606781 0.208919957280159 -2.0321699480147914e-16 0.0 -3.8825099822884138e-19 3.9708199501037598 -34.839202880859375 -2.2128398418426514 -1.311630129814148 63.78409957885742 1.9129297733306885 -0.6648109555244446 -26.303598403930664 -1.0452800989151 2.0321699480147914e-16 0.0 3.8825099822884138e-19 -5.316949844360352 -35.237606048583984 -0.25060299038887024 1.302549958229065 64.20140075683594 -2.0299599170684814 5.705219745635986 -26.07160186767578 9.788711547851562
-25.24639920081416 75.42129840035528 -115.66600242412102 -2.18530011177063 2.8600001335144043 2.2535998821258545 -3.2826898097991943 5.425540447235107 3.3124501705169678 2.385349750518799 -5.895659923553467 0.966460108757019 -5.705650329589844 9.72804069519043 -4.467419147491455 7.129690170288086 -11.237200736999512 -7.390529632568359 -0.0 0.0 -0.0 -0.0 0.0 -0.0 2.890120122931751e-14 6.482099877474709e-14 1.7457300253813368e-13 46.278297424316406 40.02180480957031 51.5823974609375 -18.696401596069336 -11.45310115814209 35.59960174560547 -0.6224309206008911 -21.828603744506836 -3.2270894050598145 -1.5492198635058685e-09 8.126150308207514e-10 3.8852598915894987e-10 -2.6832198685156072e-09 1.5166600197957791e-09 6.468360291833619e-10 -1.5492198635058685e-09 8.126189721124888e-10 3.885139987502839e-10 7.730909824371338 5.474879741668701 0.4173140823841095 -1.5492198635058685e-09 8.126189721124888e-10 3.885299859618385e-10 2.9055399894714355 0.9651829600334167 0.10290199518203735 -1.5492198635058685e-09 8.126189721124888e-10 3.8852898676111636e-10 10.27859878540039 0.73180091381073 0.025912316516041756 -1.5492198635058685e-09 8.126189721124888e-10 3.885340105203028e-10 2.221669912338257 -0.733487069606781 -0.208919957280159 2.8961797966364083e-14 6.481819340162578e-14 1.7437899811189456e-13 -53.0762939453125 46.72829818725586 -59.51210021972656 16.88920021057129 -9.539100646972656 -31.57229995727539 0.9925469756126404 -27.07790184020996 4.120238780975342 -1.340069943900346e-09 -5.146319814741673e-09 -3.8071101826631093e-10 -2.304549884257767e-09 -8.955350239148174e-09 -6.87911949626141e-10 -1.340069943900346e-09 -5.1463397987561166e-09 -3.807059945071245e-10 -7.730909824371338 5.474879741668701 -0.4173140823841095 -1.340069943900346e-09 -5.146319814741673e-09 -3.807140158684774e-10 -2.9055399894714355 0.9651829600334167 -0.10290199518203735 -1.340069943900346e-09 -5.146309600689847e-09 -3.8070999131001315e-10 -10.27859878540039 0.73180091381073 -0.025912316516041756 -1.3400599518931244e-09 -5.146309600689847e-09 -3.8071498731362396e-10 -2.221669912338257 -0.733487069606781 0.208919957280159 -2.0321699480147914e-16 0.0 -3.8825099822884138e-19 4.041220188140869 -34.87390899658203 -2.200479507446289 -1.3164699077606201 63.84311294555664 1.9181699752807617 -0.666812002658844 -26.336999893188477 -1.0491400957107544 2.0321699480147914e-16 0.0 3.8825099822884138e-19 -5.2719597816467285 -35.290802001953125 -0.2691461741924286 1.310710072517395 64.3010025024414 -2.039790153503418 5.746429920196533 -26.136999130249023 9.843221664428711
